<svg xmlns="http://www.w3.org/2000/svg" xmlns:xlink="http://www.w3.org/1999/xlink" fill="none" version="1.1" width="13.000000699382298" height="8.000002090170412" viewBox="0 0 13.000000699382298 8.000002090170412"><g transform="matrix(-1,8.742277657347586e-8,-8.742277657347586e-8,-1,23.000001704744406,13.000001164254982)"><path d="M10.439320568248133,7.5606410848084815Q10.334860568248132,7.456179084808481,10.252790568248134,7.333342084808481Q10.170710568248133,7.210504084808481,10.114180568248132,7.074015084808481Q10.057640568248132,6.937526084808481,10.028820568248133,6.792631084808481Q10.000000568248133,6.647735084808481,10.000000568248133,6.500001084808481Q10.000000568248133,6.426310784808481,10.007220568248133,6.352975084808481Q10.014450568248133,6.279640084808482,10.028820568248133,6.2073660848084815Q10.043200568248134,6.135091084808481,10.064590568248132,6.0645740848084815Q10.085980568248132,5.994057084808482,10.114180568248132,5.9259760848084815Q10.142380568248132,5.857895084808481,10.177120568248133,5.7929060848084815Q10.211860568248133,5.727917084808482,10.252800568248134,5.666646084808481Q10.293740568248133,5.605374084808481,10.340480568248132,5.548411084808481Q10.387230568248134,5.491451084808482,10.439340568248133,5.439341084808481Q10.491450568248133,5.387231084808481,10.548410568248134,5.340481084808481Q10.605373568248133,5.293741084808481,10.666645568248134,5.252801084808481Q10.727916568248133,5.211861084808481,10.792905568248132,5.177121084808482Q10.857894568248133,5.142381084808481,10.925975568248132,5.114181084808481Q10.994056568248133,5.085981084808481,11.064573568248132,5.064591084808481Q11.135090568248133,5.043201084808481,11.207365568248132,5.028821084808481Q11.279639568248133,5.014451084808481,11.352974568248133,5.0072210848084815Q11.426310268248132,5.000001084808481,11.500000568248133,5.000001084808481Q11.647740568248134,5.000001084808481,11.792641568248133,5.028821084808481Q11.937542568248134,5.057651084808481,12.074036568248133,5.114191084808481Q12.210530568248133,5.1707210848084815,12.333370568248133,5.2528110848084815Q12.456210568248133,5.334891084808481,12.560680568248133,5.439361084808481L16.499880568248134,9.37868108480848L20.439360568248134,5.439321084808482Q20.543820568248133,5.334861084808481,20.666660568248133,5.252791084808481Q20.789500568248133,5.170711084808481,20.92599056824813,5.114181084808481Q21.06247056824813,5.057641084808481,21.20737056824813,5.028821084808481Q21.352270568248134,5.000001084808481,21.500000568248133,5.000001084808481Q21.573700568248135,5.000001084808481,21.64700056824813,5.0072210848084815Q21.72040056824813,5.014451084808481,21.792600568248133,5.028821084808481Q21.86490056824813,5.043201084808481,21.935400568248134,5.064591084808481Q22.005900568248133,5.085981084808481,22.07400056824813,5.114181084808481Q22.142100568248132,5.142381084808481,22.207100568248133,5.177121084808482Q22.272100568248135,5.211861084808481,22.33340056824813,5.252801084808481Q22.394600568248133,5.293741084808481,22.451600568248132,5.340481084808481Q22.508600568248134,5.387231084808481,22.560700568248134,5.439341084808481Q22.612800568248133,5.491451084808482,22.659500568248134,5.548411084808481Q22.706300568248132,5.605374084808481,22.747200568248132,5.666646084808481Q22.788100568248133,5.727917084808482,22.822900568248134,5.7929060848084815Q22.85760056824813,5.857895084808481,22.885800568248133,5.9259760848084815Q22.914000568248134,5.994057084808482,22.935400568248134,6.0645740848084815Q22.956800568248134,6.135091084808481,22.971200568248133,6.2073660848084815Q22.98560056824813,6.279640084808482,22.992800568248136,6.352975084808481Q23.000000568248133,6.426310784808481,23.000000568248133,6.500001084808481Q23.000000568248133,6.647741084808481,22.971200568248133,6.792642084808481Q22.942400568248132,6.937543084808481,22.885800568248133,7.074037084808481Q22.829300568248133,7.2105300848084815,22.747200568248132,7.333371084808482Q22.665100568248135,7.456211084808482,22.560600568248134,7.560681084808481L17.560490568248134,12.560681084808481Q17.508380568248132,12.612781084808482,17.451420568248132,12.659531084808481Q17.394450568248132,12.70628108480848,17.33318056824813,12.747221084808482Q17.27191056824813,12.788161084808483,17.206920568248133,12.822891084808482Q17.141930568248135,12.857631084808482,17.073850568248133,12.885831084808482Q17.005760568248135,12.914031084808482,16.935250568248133,12.935421084808482Q16.864730568248135,12.956811084808482,16.79246056824813,12.971181084808482Q16.720180568248132,12.98556108480848,16.646850568248134,12.992781084808481Q16.573510568248132,13.000001084808481,16.499820568248133,13.000001084808481Q16.426130568248134,13.000001084808481,16.352790568248132,12.992781084808481Q16.279460568248133,12.985551084808481,16.207180568248134,12.971171084808482Q16.13491056824813,12.956801084808482,16.064390568248132,12.93540108480848Q15.993880568248134,12.914011084808482,15.925800568248132,12.88581108480848Q15.857720568248133,12.857611084808482,15.792730568248132,12.822871084808481Q15.727740568248134,12.78813108480848,15.666470568248133,12.747191084808481Q15.605200568248133,12.706251084808482,15.548240568248133,12.659501084808483Q15.491270568248133,12.612751084808481,15.439170568248134,12.56064108480848L10.439320568248133,7.5606410848084815Z" fill-rule="evenodd" fill="#BBB6F2" fill-opacity="1"/></g></svg>